<svg width="48" height="48" viewBox="0 0 48 48" fill="none" xmlns="http://www.w3.org/2000/svg">
    <rect width="48" height="48" fill="url(#paint0_linear_21_51)"/>
    <path d="M21.1129 18.2469C21.1129 16.4537 22.6294 15 24.5 15C26.3706 15 27.8871 16.4537 27.8871 18.2469C27.8871 20.0401 26.3706 21.4938 24.5 21.4938C22.6294 21.4938 21.1129 20.0401 21.1129 18.2469Z" fill="white"/>
    <path d="M17.5 29.2041C17.5 27.4109 19.0165 24.2255 20.8871 24.2255H21.195C21.3616 24.2255 21.5272 24.2508 21.6856 24.3004L22.4674 24.5451C23.7881 24.9585 25.2119 24.9585 26.5326 24.5451L27.3144 24.3004C27.4728 24.2508 27.6384 24.2255 27.805 24.2255H28.1129C29.9835 24.2255 31.5 27.4109 31.5 29.2041V30.233C31.5 30.8852 31.0069 31.4413 30.3355 31.5464C26.4707 32.1512 22.5293 32.1512 18.6645 31.5464C17.9931 31.4413 17.5 30.8852 17.5 30.233V29.2041Z" fill="white"/>
    <path d="M21.1129 18.2469C21.1129 16.4537 22.6294 15 24.5 15C26.3706 15 27.8871 16.4537 27.8871 18.2469C27.8871 20.0401 26.3706 21.4938 24.5 21.4938C22.6294 21.4938 21.1129 20.0401 21.1129 18.2469Z" stroke="white" stroke-linecap="round" stroke-linejoin="round"/>
    <path d="M17.5 29.2041C17.5 27.4109 19.0165 24.2255 20.8871 24.2255H21.195C21.3616 24.2255 21.5272 24.2508 21.6856 24.3004L22.4674 24.5451C23.7881 24.9585 25.2119 24.9585 26.5326 24.5451L27.3144 24.3004C27.4728 24.2508 27.6384 24.2255 27.805 24.2255H28.1129C29.9835 24.2255 31.5 27.4109 31.5 29.2041V30.233C31.5 30.8852 31.0069 31.4413 30.3355 31.5464C26.4707 32.1512 22.5293 32.1512 18.6645 31.5464C17.9931 31.4413 17.5 30.8852 17.5 30.233V29.2041Z" stroke="white" stroke-linecap="round" stroke-linejoin="round"/>
    <defs>
        <linearGradient id="paint0_linear_21_51" x1="0.333333" y1="7.59959e-07" x2="48.3333" y2="48" gradientUnits="userSpaceOnUse">
            <stop stop-color="#fd7126"/>
            <stop offset="1" stop-color="#fff5f0"/>
        </linearGradient>
    </defs>
</svg>
